HIERARCHY
ROOT joint_0
{
	OFFSET 0.000000 0.000000 0.000000
	CHANNELS 6 Xposition Yposition Zposition Zrotation Yrotation Xrotation 
	JOINT joint_1
	{
		OFFSET 11.612000 -0.419000 106.198000
		CHANNELS 3 Zrotation Yrotation Xrotation
		JOINT joint_2
		{
			OFFSET -1.708000 -1.022000 97.564090
			CHANNELS 3 Zrotation Yrotation Xrotation
			JOINT joint_3
			{
				OFFSET -4.121000 -1.538000 97.375000
				CHANNELS 3 Zrotation Yrotation Xrotation
				JOINT joint_4
				{
					OFFSET 5.442000 -2.123000 132.795900
					CHANNELS 3 Zrotation Yrotation Xrotation
					JOINT joint_5
					{
						OFFSET 21.935000 0.195000 82.975100
						CHANNELS 3 Zrotation Yrotation Xrotation
						End Site
						{
							OFFSET 0.000000 0.000000 0.000000
						}
					}
				}
				JOINT joint_6
				{
					OFFSET 4.262000 -30.048000 73.899900
					CHANNELS 3 Zrotation Yrotation Xrotation
					JOINT joint_7
					{
						OFFSET 9.731000 -136.810010 -21.963010
						CHANNELS 3 Zrotation Yrotation Xrotation
						JOINT joint_8
						{
							OFFSET 33.360000 -35.709000 -267.597900
							CHANNELS 3 Zrotation Yrotation Xrotation
							JOINT joint_9
							{
								OFFSET 36.156000 -29.759000 -240.558040
								CHANNELS 3 Zrotation Yrotation Xrotation
								End Site
								{
									OFFSET 0.000000 0.000000 0.000000
								}
							}
						}
					}
				}
				JOINT joint_10
				{
					OFFSET 2.027000 27.734000 74.914920
					CHANNELS 3 Zrotation Yrotation Xrotation
					JOINT joint_11
					{
						OFFSET -5.183000 136.784000 -23.604980
						CHANNELS 3 Zrotation Yrotation Xrotation
						JOINT joint_12
						{
							OFFSET 29.806000 37.229000 -267.809940
							CHANNELS 3 Zrotation Yrotation Xrotation
							JOINT joint_13
							{
								OFFSET 36.890000 46.524990 -237.772030
								CHANNELS 3 Zrotation Yrotation Xrotation
								End Site
								{
									OFFSET 0.000000 0.000000 0.000000
								}
							}
						}
					}
				}
			}
		}
	}
	JOINT joint_14
	{
		OFFSET -7.290000 -102.873990 -124.314940
		CHANNELS 3 Zrotation Yrotation Xrotation
		JOINT joint_15
		{
			OFFSET -15.466000 -19.909010 -438.533020
			CHANNELS 3 Zrotation Yrotation Xrotation
			JOINT joint_16
			{
				OFFSET -26.899000 -18.922000 -464.797000
				CHANNELS 3 Zrotation Yrotation Xrotation
				JOINT joint_17
				{
					OFFSET 179.329000 -12.011000 -84.174000
					CHANNELS 3 Zrotation Yrotation Xrotation
					End Site
					{
						OFFSET 0.000000 0.000000 0.000000
					}
				}
			}
		}
	}
	JOINT joint_18
	{
		OFFSET -6.225000 101.546000 -125.479980
		CHANNELS 3 Zrotation Yrotation Xrotation
		JOINT joint_19
		{
			OFFSET -13.973000 7.996000 -438.963010
			CHANNELS 3 Zrotation Yrotation Xrotation
			JOINT joint_20
			{
				OFFSET -44.294000 5.716000 -463.813970
				CHANNELS 3 Zrotation Yrotation Xrotation
				JOINT joint_21
				{
					OFFSET 178.505000 -4.689000 -85.139000
					CHANNELS 3 Zrotation Yrotation Xrotation
					End Site
					{
						OFFSET 0.000000 0.000000 0.000000
					}
				}
			}
		}
	}
}
MOTION
Frames: 6
Frame Time: 0.016667
-3389.767334 943.924194 1127.477051 -0.447840 -2.048214 0.889762 -0.266274 6.688461 0.046919 -0.337668 -1.343939 -0.007557 -0.297669 1.289919 -0.056134 -0.028186 -1.016032 0.105508 0.000000 0.000000 0.000000 -4.443157 0.782229 -0.177578 0.343087 0.069570 0.491050 2.902179 -14.698596 5.343608 0.000000 0.000000 0.000000 0.578517 -0.959045 0.183127 -0.700794 -1.114623 1.738360 -3.110464 -10.751523 -7.672309 0.000000 0.000000 0.000000 -2.566963 2.981404 -0.695875 -2.398008 -0.861982 -0.547636 -2.335773 -1.533691 -1.198219 0.000000 0.000000 0.000000 6.310971 1.920162 -0.462924 6.221298 -1.884865 0.480181 6.038233 0.391211 2.890179 0.000000 0.000000 0.000000 
-3389.022461 944.016174 1127.484985 -0.394406 -2.060918 0.865025 -0.278285 6.767422 0.150878 -0.354108 -1.357671 -0.058354 -0.310538 1.297260 -0.021807 -0.027952 -1.047148 0.103214 0.000000 0.000000 0.000000 -4.511830 1.353760 -0.271221 0.333683 0.618265 0.167221 3.604557 -18.324829 6.492668 0.000000 0.000000 0.000000 0.678081 -0.446611 0.089879 -0.663796 -0.587641 2.138193 -3.707056 -13.383961 -8.942355 0.000000 0.000000 0.000000 -2.652630 3.018775 -0.661460 -2.482964 -0.791240 -0.592063 -2.410231 -1.720864 -1.245630 0.000000 0.000000 0.000000 6.319598 1.840322 -0.448393 6.232982 -1.603480 0.576518 6.049964 0.080644 2.887353 0.000000 0.000000 0.000000 
-3388.167236 944.061462 1127.494995 -0.341434 -2.097424 0.840383 -0.284603 6.858631 0.255357 -0.364796 -1.370301 -0.106515 -0.317974 1.304035 0.010524 -0.025256 -1.073240 0.091445 0.000000 0.000000 0.000000 -4.604681 2.057434 -0.465282 0.322941 1.306546 -0.118428 4.422133 -22.964806 7.617272 0.000000 0.000000 0.000000 0.779984 0.209304 0.086546 -0.581797 0.096352 2.568500 -4.460126 -16.999337 -10.583125 0.000000 0.000000 0.000000 -2.733358 3.039732 -0.639509 -2.569833 -0.603996 -0.624077 -2.474714 -2.053075 -1.298088 0.000000 0.000000 0.000000 6.324659 1.768732 -0.426532 6.241993 -1.261115 0.684793 6.058873 -0.328270 2.880472 0.000000 0.000000 0.000000 
-3387.170654 943.972900 1127.512939 -0.301129 -2.168013 0.824460 -0.271033 6.961459 0.341541 -0.354666 -1.385673 -0.133604 -0.306086 1.313434 0.028769 -0.015507 -1.090938 0.053454 0.000000 0.000000 0.000000 -4.725276 2.935824 -0.756910 0.304410 2.180646 -0.300146 5.318044 -28.914438 8.393740 0.000000 0.000000 0.000000 0.844152 1.014350 0.165361 -0.406750 0.969878 3.095636 -5.378918 -21.911342 -12.724196 0.000000 0.000000 0.000000 -2.785105 3.025958 -0.653496 -2.640346 -0.227186 -0.616385 -2.503219 -2.617599 -1.349271 0.000000 0.000000 0.000000 6.330951 1.715290 -0.400529 6.253560 -0.843552 0.794677 6.068861 -0.857897 2.870843 0.000000 0.000000 0.000000 
-3386.073242 943.813110 1127.537964 -0.268252 -2.267810 0.812426 -0.247789 7.078132 0.421797 -0.334702 -1.410485 -0.150894 -0.284967 1.332364 0.037678 -0.001914 -1.103891 0.001670 0.000000 0.000000 0.000000 -4.853095 3.953082 -0.937780 0.264448 3.173471 -0.595024 6.246382 -36.002125 8.870471 0.000000 0.000000 0.000000 0.882675 1.919351 0.115715 -0.079909 2.016173 3.911290 -6.368390 -27.974565 -15.313308 0.000000 0.000000 0.000000 -2.818579 2.986356 -0.694289 -2.702483 0.302501 -0.581717 -2.508242 -3.372261 -1.402179 0.000000 0.000000 0.000000 6.336693 1.665808 -0.369673 6.265922 -0.342423 0.914635 6.079795 -1.500857 2.858528 0.000000 0.000000 0.000000 
-3384.708252 943.493835 1127.552979 -0.230974 -2.390547 0.806919 -0.209980 7.213003 0.477647 -0.299798 -1.435750 -0.160590 -0.249667 1.351663 0.039754 0.006304 -1.106212 -0.029820 0.000000 0.000000 0.000000 -5.009189 5.026358 -1.154962 0.191955 4.201163 -1.013179 7.137656 -43.561882 9.536794 0.000000 0.000000 0.000000 0.886835 2.834533 0.069059 0.339185 3.122353 4.832321 -7.278696 -34.652786 -17.824265 0.000000 0.000000 0.000000 -2.853502 2.934846 -0.732764 -2.771437 0.938485 -0.548578 -2.514032 -4.197297 -1.460110 0.000000 0.000000 0.000000 6.334720 1.688044 -0.330847 6.269313 0.110030 1.028240 6.083687 -2.176029 2.841784 0.000000 0.000000 0.000000 
